<svg width="52" height="50" viewBox="0 0 52 50" fill="none" xmlns="http://www.w3.org/2000/svg">
<g clip-path="url(#clip0_910_5)">
<path fill-rule="evenodd" clip-rule="evenodd" d="M24.4994 29.2411V44.4196C24.4994 45.0893 24.2767 45.7589 23.6086 46.2054C23.1631 46.6518 22.4949 46.875 21.8268 46.6518C18.2632 46.2054 14.6997 44.6428 12.027 42.6339C11.5816 42.1875 11.1361 41.7411 11.1361 41.0714C11.1361 40.4018 11.3588 39.7321 11.8043 39.2857L22.4949 28.5714C22.7177 28.3482 23.3858 28.125 23.8313 28.3482C24.054 28.3482 24.4994 28.5714 24.4994 29.2411ZM24.9449 49.5536C11.1361 49.5536 0 38.3929 0 24.7768C0 11.1607 11.1361 0 24.9449 0V1.33929C12.027 1.33929 1.33634 11.8304 1.33634 24.7768C1.33634 37.7232 11.8043 48.2143 24.9449 48.2143V49.5536ZM22.4949 21.4286L11.8043 10.7143C11.3588 10.2679 11.1361 9.59821 11.1361 8.92857C11.1361 8.25893 11.5816 7.58929 12.027 7.36608C14.9224 5.35715 18.2632 3.79464 21.8268 3.34821C22.4949 3.34821 23.1631 3.34822 23.6086 3.79464C24.054 4.24107 24.4994 4.91071 24.4994 5.58036V20.7589C24.4994 21.2054 24.2767 21.6518 23.8313 21.875C23.1631 21.6518 22.7177 21.6518 22.4949 21.4286ZM20.7132 24.1071H5.34534C4.67717 24.1071 4.009 23.8839 3.56356 23.4375C3.11812 22.9911 2.89539 22.3214 3.11811 21.6518C3.56356 18.0804 5.12261 14.7321 7.12711 11.8304C7.57256 11.3839 8.018 10.9375 8.68617 10.9375C9.35433 10.9375 10.0225 11.1607 10.4679 11.6071L21.1586 22.3214C21.3813 22.5446 21.6041 23.2143 21.3813 23.4375C21.1586 23.6607 21.1586 24.1071 20.7132 24.1071ZM21.6041 27.4554L10.9134 38.1696C10.4679 38.6161 9.79978 38.8393 9.13161 38.8393C8.46345 38.8393 7.79528 38.3929 7.57256 37.9464C5.56806 35.0446 4.009 31.6964 3.56356 28.125C3.56356 27.4554 3.56356 26.7857 4.00901 26.3393C4.45445 25.8929 5.12262 25.6696 5.79078 25.6696H21.1586C21.6041 25.6696 22.0495 25.8929 22.2722 26.3393C22.0495 26.5625 21.8268 27.0089 21.6041 27.4554Z" fill="#BFE8B1"/>
<path fill-rule="evenodd" clip-rule="evenodd" d="M26.2812 0L33.6311 7.36608H44.099V17.6339L51.4488 25L44.099 32.3661V42.6339H33.6311L26.2812 50V46.6518L30.5129 42.4107L30.9585 42.1875C29.1767 41.9643 27.6176 41.0714 26.504 39.5089C26.504 39.5089 26.5039 39.7321 26.2812 39.7321V36.3839L29.1766 33.4821L31.6265 31.0268L30.5129 29.9107C29.3993 30.8036 27.8404 31.25 26.2812 31.25V29.4643C28.9539 29.4643 31.1812 27.2321 31.1812 24.5536C31.1812 21.875 28.9539 19.6429 26.2812 19.6429V17.8571C27.8404 17.8571 29.1766 18.3036 30.2902 19.1964L31.4038 18.0804L29.1766 15.8482L26.2812 13.1696V9.82143C26.2812 9.82143 26.2813 10.0446 26.504 10.0446C27.3949 8.48214 29.1767 7.58929 30.9585 7.36608L30.7358 7.14286L26.504 2.90179V0H26.2812ZM32.9629 29.9107L35.4128 27.4554L38.0855 24.7768L35.4128 22.0982L32.9629 19.6429L31.8493 20.7589C32.7402 21.875 33.1856 23.4375 33.1856 24.7768C33.1856 26.3393 32.7402 27.6786 31.8493 28.7946L32.9629 29.9107ZM35.6356 9.375C36.5265 10.4911 37.1946 11.8304 37.1946 13.1696V14.0625H38.0855C39.4218 14.0625 40.7582 14.5089 41.8718 15.4018V9.375H35.6356ZM44.099 20.5357C43.8763 22.3214 42.9854 23.8839 41.4263 25C42.9854 25.8929 43.8763 27.4554 44.099 29.4643L48.3307 25.2232L44.099 20.5357ZM41.8718 34.1518C40.7582 35.0446 39.6445 35.4911 38.0855 35.4911H37.1946V36.3839C37.1946 37.9464 36.5265 39.2857 35.6356 40.1786H41.8718V34.1518ZM27.6175 11.8304L29.8449 14.0625H35.4128V13.1696C35.4128 10.9375 33.631 9.15179 31.4038 9.15179C29.6221 9.375 28.2857 10.4911 27.6175 11.8304ZM31.8493 16.0714L32.7402 16.9643L34.0765 18.3036L35.1902 19.4196V15.8482L31.8493 16.0714ZM37.1946 21.4286L39.4218 23.6607C40.9809 23.2143 42.0946 21.6518 42.0946 19.8661C42.0946 17.6339 40.3127 15.8482 38.0855 15.8482H37.1946C37.1946 16.0714 37.1946 21.4286 37.1946 21.4286ZM39.6446 25.8929L37.4174 28.125V33.4821H38.3083C40.5355 33.4821 42.3172 31.6964 42.3172 29.4643C42.0945 27.9018 40.981 26.5625 39.6446 25.8929ZM35.4128 30.1339L34.2992 31.25L32.9629 32.5893L31.8493 33.7054H35.4128V30.1339ZM30.0675 35.4911L27.8403 37.7232C28.5084 39.2857 29.8448 40.4018 31.6265 40.4018C33.8538 40.4018 35.6356 38.6161 35.6356 36.3839V35.4911C35.4129 35.4911 30.0675 35.4911 30.0675 35.4911Z" fill="white"/>
</g>
<defs>
<clipPath id="clip0_910_5">
<rect width="52" height="50" fill="white"/>
</clipPath>
</defs>
</svg>
